<?xml version="1.0" encoding="utf-8"?>
<!-- Generator: Adobe Illustrator 22.0.1, SVG Export Plug-In . SVG Version: 6.00 Build 0)  -->
<svg version="1.1" id="Ebene_1" xmlns="http://www.w3.org/2000/svg" xmlns:xlink="http://www.w3.org/1999/xlink" x="0px" y="0px"
	 viewBox="0 0 419.5 141.7" style="enable-background:new 0 0 419.5 141.7;" xml:space="preserve">
<style type="text/css">
	.st0{fill:#404257;}
	.st1{fill:none;}
	.st2{fill:#00AEAD;}
	.st3{display:none;}
	.st4{display:inline;fill:#00AEAD;}
</style>
<g id="Layer_2">
</g>
<g id="Layer_1">
	<g>
		<path class="st0" d="M360.6,62.3l0-8.1l0-0.1l12.3-8.5l-12.2,0l0-8.2l26.4,0l0,8.2L375,54l12.1,0l0,8.2L360.6,62.3z"/>
		<path class="st0" d="M379.8,73.7l-2.5,0l0,10.7l-6.6,0l0-10.7l-2.6,0l0,10.9l-7.5,0l0-19.2l26.5,0l0,19.1l-7.3,0L379.8,73.7z"/>
		<path class="st0" d="M378.9,108.5l0-6.9l-18.4,0l0-8.2l18.4,0l0-6.9l8.1,0l0,22L378.9,108.5z"/>
	</g>
	<g>
		<line class="st1" x1="41.7" y1="59" x2="41.6" y2="59"/>
		<polyline class="st1" points="49.2,73.7 49.2,59 41.7,59 		"/>
		<line class="st1" x1="41.6" y1="59" x2="40.9" y2="59"/>
		<line class="st1" x1="30.5" y1="37.6" x2="30.5" y2="37.6"/>
		<polygon class="st1" points="142,52 154.7,70.7 164.9,59.8 169,40.4 115.1,40.4 123.2,79.6 		"/>
		<polygon class="st2" points="31.9,40.4 32,40.4 30.5,37.6 30.5,37.6 		"/>
		<polygon class="st0" points="31.9,40.4 30.5,37.6 30.5,40.4 30.5,59 40.9,59 		"/>
		<polygon class="st0" points="49.2,108.7 64.9,108.7 49.2,76.3 		"/>
		<polygon class="st2" points="41.7,37 30.5,37 30.5,37.6 32,40.4 31.9,40.4 40.9,59 41.6,59 41.7,59 49.2,59 49.2,73.7 49.2,76.3 
			64.9,108.7 67.3,108.7 71.4,108.7 71.4,59 90.1,59 90.1,40.4 90.1,37 		"/>
		<polygon class="st2" points="169.6,37.1 169,40.4 164.9,59.8 183.1,40.4 186.2,37.1 		"/>
		<polygon class="st2" points="142,52 123.2,79.6 115.1,40.4 114.4,37.1 91.7,37.1 92.3,40.4 106.4,108.7 119,108.7 154.7,70.7 		
			"/>
		<polygon class="st0" points="186.2,37.1 183.1,40.4 164.9,59.8 160.8,79.6 154.7,70.7 119,108.7 129.2,108.7 129.2,108.5 
			129.3,108.6 142.1,89.1 154.8,108.6 154.9,108.5 154.8,108.7 177.5,108.7 191.7,40.4 192.4,37.1 		"/>
		<path class="st2" d="M268.8,108.7l-11.6-33.3c-3.6,11.4-7.2,22.8-10.6,33.3H268.8z"/>
		<path class="st0" d="M245,40.4L245,40.4l-1.2-3.4h-26.6l-1.2,3.4l-23.7,68.3l23.5,0.1l3.3-9.5H242l3.3,9.4h1.3
			c3.4-10.5,7-21.9,10.6-33.3L245,40.4z M225.5,81l5.1-14.6l5.1,14.6H225.5z"/>
		<polygon class="st2" points="333.3,37 333.3,40.4 333.3,108.7 355.6,108.7 355.6,40.4 355.6,37 		"/>
		<path class="st2" d="M323.3,36.9c0,0-14.4-2.5-22.1-2.9c-7.8-0.3-15.9,0.1-22.5,5.3c-0.5,0.4-0.9,0.7-1.3,1.1h45.2L323.3,36.9z"/>
		<g>
			<path class="st2" d="M308.6,64.8c0,0-3.2-0.5-7.1-1.2c-7.1-1-8.3-1.5-8.3-1.5c-1.3-0.5-2.8-2.1-2.2-4.3c0.8-3,3.2-2.5,9.8-2.1
				c5.3,0.4,17.8,2,17.8,2l3.9-17.2h-45.2c-5.6,4.8-7.6,10.7-8.7,18.4c-1,8,3.2,18.5,13.7,20.7c0,0,3.1,0.7,9.5,1.7
				c6.5,0.8,6.7,0.9,6.7,0.9c5.8,0.7,5.7,3.5,5.4,5c-0.8,3.9-5.6,3-9.7,2.8c-8.2-0.5-19.1-2.2-19.1-2.2l-4.3,21.4
				c0,0,12.7,2.5,21.2,2.7c8.1,0.1,18.1,0.5,24.8-4.5c6.5-5.2,8.9-11.3,10.1-19.5C328.2,77.8,322.1,67.2,308.6,64.8z"/>
			<path class="st2" d="M308.6,64.8c0,0-3.2-0.5-7.1-1.2c-7.1-1-8.3-1.5-8.3-1.5c-1.3-0.5-2.8-2.1-2.2-4.3c0.8-3,3.2-2.5,9.8-2.1
				c5.3,0.4,17.8,2,17.8,2l3.9-17.2h-0.1l0,0h0.1l0.8-3.5c0,0-14.4-2.5-22.1-2.9c-7.8-0.3-15.9,0.1-22.5,5.3
				c-0.5,0.4-0.9,0.7-1.3,1.1h0.3c0,0,0,0,0,0h-0.3c-0.5,0.4-0.9,0.8-1.3,1.2c0,0,0,0,0,0h0c-4.6,4.6-6.4,10-7.3,17.2
				c-1,8,3.2,18.5,13.7,20.7c0,0,3.1,0.7,9.5,1.7c6.5,0.8,6.7,0.9,6.7,0.9c5.8,0.7,5.7,3.5,5.4,5c-0.8,3.9-5.6,3-9.7,2.8
				c-8.2-0.5-19.1-2.2-19.1-2.2l-4.3,21.4c0,0,12.7,2.5,21.2,2.7c8.1,0.1,18.1,0.5,24.8-4.5c6.5-5.2,8.9-11.3,10.1-19.5
				C328.2,77.8,322.1,67.2,308.6,64.8z"/>
		</g>
	</g>
</g>
<g id="Layer_3" class="st3">
	<rect x="48.3" y="26" class="st4" width="316.9" height="73.2"/>
</g>
</svg>
